<?xml version="1.0" encoding="UTF-8"?>
<svg id="Layer_1" data-name="Layer 1" xmlns="http://www.w3.org/2000/svg" viewBox="0 0 385 385">
  <defs>
    <style>
      .cls-1 {
        stroke: #000;
        stroke-width: 25px;
      }

      .cls-1, .cls-2 {
        fill: #fff;
        stroke-miterlimit: 10;
      }

      .cls-2 {
        stroke: #fff;
        stroke-width: 6px;
      }
    </style>
  </defs>
  <circle class="cls-1" cx="192.5" cy="192.5" r="180"/>
  <path d="m162.74,56.58c32.4-1.48,64-2.76,90.21,14.31,28.95,18.85,31.81,76.7,5.62,99.23h0c27.23,13.07,30.47,40.68,28.6,66.55-6.47,89.42-100.1,73.01-165.28,73.62V57.45l40.85-.86Z"/>
  <g>
    <path class="cls-2" d="m115.2,277.02v-80.1c8.23,0,16.32-.02,24.42,0,16.41.05,32.84-.47,49.21.39,12.04.63,26.05,6.31,30.63,20.87,2.82,8.82,3.15,17.42,2.34,25.6-.66,12.29-6.69,23.66-18.59,29.39-2.92,1.4-6.28,2.57-9.46,2.64-25.72.57-51.44.85-77.16,1.22-.43,0-.87,0-1.38,0Zm10.39-11.96c20.01,0,39.89.17,59.77-.06,11.4-.13,20.47-4.68,24.4-16.15,6.02-17.55,1.51-40.48-25.9-40.02-18.96.32-37.92.09-56.88.1-.46,0-.92,0-1.38,0v56.14Z"/>
    <path class="cls-2" d="m221.45,57.9c3.92,1.07,7.56,2.02,11.16,3.1.31.09.53,1.02.53,1.57.03,14.33.02,28.67.02,43,0,4.51.3,9.05-.08,13.53-1.14,13.55-6.87,25.77-22.34,31.24-11.48,4.05-23.2,4.1-34.61.64-12.4-3.76-20.23-12.54-21.75-25.63-1.13-9.71-1.29-19.55-1.47-29.34-.23-13.2-.06-26.41-.06-39.7,4.44-.21,8.27-.39,12.17-.57,0,1.58,0,2.96,0,4.34.04,18.93-.1,37.85.22,56.78.14,8.21,2.16,16.22,9.36,21.24,3.48,2.43,7.87,4.38,12.03,4.83,10.35,1.12,20.89,1,28.7-7.55,5.57-6.09,6.12-13.95,6.11-21.8-.01-17.82,0-35.65,0-53.47,0-.51,0-1.02,0-2.2Z"/>
  </g>
</svg>