<?xml version="1.0" encoding="UTF-8"?>
<svg id="Layer_1" data-name="Layer 1" xmlns="http://www.w3.org/2000/svg" viewBox="0 0 914.29 513">
  <defs>
    <style>
      .cls-1 {
        fill: none;
        stroke: #000;
        stroke-linecap: round;
        stroke-linejoin: round;
        stroke-width: 2px;
      }
    </style>
  </defs>
  <path class="cls-1" d="m352.58,257.34c-24.23-14.76-48.49-29.47-72.68-44.29-40.41-24.75-80.77-49.56-121.15-74.35"/>
  <path class="cls-1" d="m137.86,127c1.95,2.79,3.29,6.56,5.94,8.2,25.74,15.85,51.85,31.11,77.57,47,41.62,25.7,83.03,51.75,124.52,77.65,2.23,1.39,4.46,2.78,6.68,4.18"/>
  <path class="cls-1" d="m217.23,319.16c-14.76,5.29-29.46,10.77-44.29,15.84-44.25,15.13-88.56,30.1-132.81,45.21-1.84.63-3.38,2.14-5.02,3.22,19.1,28.34,38.18,56.66,57.6,85.46,98.02-40.3,196.65-80.85,295.45-121.47-33.19-23.65-65.72-46.83-98.88-70.45-18.25,6.13-36.95,12.42-55.18,18.55.84,10.52,1.6,20,2.35,29.48"/>
  <path class="cls-1" d="m689.29,354.25c33.42,16.99,66.85,33.96,100.26,50.97,26.97,13.73,53.92,27.51,81.12,41.39,4.88-3.79,9.58-7.45,15.35-11.94,7.99,3.86,16.75,8.09,25.51,12.32"/>
  <path class="cls-1" d="m483.76,443.65v16.41c70.43-36.56,139.97-72.65,210.68-109.36,58.71,29.58,119.1,60.01,179.5,90.44"/>
  <path class="cls-1" d="m578.17,293.26c-9.19-5.01-18.19-10.45-27.68-14.8-3.22-1.48-8.15-1.39-11.52-.05-28.53,11.38-56.88,23.22-85.3,34.9-4.28,1.76-8.12,2.49-12.63-.68-8.27-5.81-17.16-10.73-25.8-16.02"/>
  <path class="cls-1" d="m504.64,54.31c-.36,3.02-.71,6.04-1.07,9.13,37.52,10.23,74.02,20.18,110.52,30.13"/>
  <path class="cls-1" d="m382.66,427.78c-50.41,24.23-100.8,48.5-151.25,72.64-7.65,3.66-15.57,6.73-23.37,10.07"/>
  <path class="cls-1" d="m154.57,55.14c-18.1,2.79-36.21,5.54-54.31,8.36-17.55,2.74-35.09,5.56-52.64,8.35"/>
  <path class="cls-1" d="m678.43,111.12c35.37,9.75,70.74,19.5,106.11,29.24"/>
  <path class="cls-1" d="m522.19,227.26c22.28,10.3,44.56,20.62,66.84,30.91,10.3,4.76,20.61,9.47,30.91,14.21"/>
  <path class="cls-1" d="m806.26,129.5c-.94,4.71-1.88,9.43-3.02,15.14,12.28,3.63,24.32,7.33,36.45,10.72,16.39,4.59,32.8,9.16,49.34,13.19,2.7.66,6.17-1.22,9.12-2.35,4.54-1.74,8.93-3.84,13.39-5.79"/>
  <path class="cls-1" d="m482.92,380.99c-31.75,15.04-63.5,30.08-95.25,45.12"/>
  <path class="cls-1" d="m482.92,461.2c-30.36,16.43-60.71,32.87-91.09,49.27-.43.23-1.1.03-1.66.03"/>
  <path class="cls-1" d="m297.44,111.12c-.48,3.35-.95,6.71-1.64,11.6,30.07,14.32,60.77,28.94,92.71,44.15,0-12.29-.5-23.19.23-34.01.32-4.82,3.11-9.48,4.79-14.22"/>
  <path class="cls-1" d="m722.71,443.65c-16.71-2.78-33.4-5.68-50.14-8.32-15.02-2.38-30.07-4.49-45.11-6.72"/>
  <path class="cls-1" d="m517.18,309.97c-5.42-3.31-10.85-6.63-15.98-9.76-18.89,7.69-36.95,15.03-55.15,22.44-10.83-6.7-21.68-13.4-31.17-19.27-1.39-8.57-2.6-16.03-3.81-23.49"/>
  <path class="cls-1" d="m422.77,86.89c9.75,3.9,19.29,8.56,29.35,11.3,3.8,1.03,8.75-2.62,13.28-3.72,5.02-1.22,9.91-1.53,15.08.64,8.43,3.54,17.21,6.26,25.85,9.32"/>
  <path class="cls-1" d="m566.47,340.89c-27.2,13-54.4,26.01-81.04,38.74v45.64"/>
  <path class="cls-1" d="m245.64,345.06c-39.55,14.48-79.11,28.92-118.59,43.58-1.77.66-2.83,3.21-2.55,4.88v16.71"/>
  <path class="cls-1" d="m424.44,106.94c-.84.84-1.63,2.36-2.51,2.41-17.31.95-27.62,18.38-26.77,35.19.73,14.47,1.15,28.96,1.71,43.44"/>
  <path class="cls-1" d="m116.14,230.6c-1.32-8.65-2.63-17.3-4.13-27.18-10.63-.8-21.28-1.1-31.78,1.34-24.27,5.66-48.47,11.63-72.7,17.5-.59.14-1.12.54-1.68.82"/>
  <path class="cls-1" d="m227.26,332.53c-29.52,10.58-59.04,21.18-88.57,31.74-10.41,3.73-21.81,5.65-29.18,15.09-2.6,3.33-4.52,7.19-6.74,10.82"/>
  <path class="cls-1" d="m675.09,320c-24.08-11.71-48.17-23.42-73.2-35.59-8.69,3.54-18.65,7.59-28.73,11.7-7.89-4.34-15.52-8.87-23.47-12.7-2.26-1.09-5.81-.98-8.22-.03-13.48,5.29-26.79,11.01-40.16,16.58"/>
  <path class="cls-1" d="m659.21,253.16c-.42,4.86,3.44,6.06,6.7,7.48,21.97,9.54,43.99,18.98,65.99,28.45"/>
  <path class="cls-1" d="m606.58,396.86c.31-13.4.62-26.8.99-42.4-9.35-8.48-24.99-8.07-37.69-15.39-.92,10.17-2.14,19.34-2.48,28.55-.6,15.86-.64,31.75-.92,47.62"/>
  <path class="cls-1" d="m815.45,99.43c-16.43-3.62-32.86-7.23-49.29-10.87-3.63-.8-7.23-1.72-10.87-2.47-1.07-.22-2.5-.47-3.29.03-9.81,6.22-19.54.81-29.28-.07"/>
  <path class="cls-1" d="m555.61,223.92c16.26,7.63,32.51,15.26,50.13,23.53v-19.35"/>
  <path class="cls-1" d="m663.39,257.34c17.15-7.51,34.3-15.03,49.65-21.75,24.81,9.4,47.74,18.08,70.66,26.77"/>
  <path class="cls-1" d="m731.9,292.43c-7.52,3.62-15.09,7.13-22.55,10.88-33.72,16.95-67.41,33.96-101.11,50.95"/>
  <path class="cls-1" d="m538.07,172.11c-2.23.84-4.57,1.46-6.67,2.54-11.7,6.04-22.55,2.96-33.48-2.46-6.93-3.44-14.26-6.1-22.52-9.57v26.2"/>
  <path class="cls-1" d="m413.57,177.96c21.44,9.75,42.89,19.5,64.33,29.24"/>
  <path class="cls-1" d="m789.55,347.57c17.27,8.08,34.52,16.18,51.81,24.21,3.84,1.79,7.79,3.36,11.69,5.03"/>
  <path class="cls-1" d="m482.09,239.79c-5.57,1.95-11.23,3.68-16.69,5.9-9.69,3.94-11.26,11.4-5.19,20.11,1.8,2.59,1.76,6.46,2.78,10.64,3.77,2.35,8.56,5.33,14.99,9.33-9.69,3.76-18.17,7.06-26.25,10.2-11.66-6.66-22.92-12.87-33.87-19.58-1.76-1.08-8.1-1.41-3.44-6.52"/>
  <path class="cls-1" d="m420.26,335.87c20.89,13.93,41.78,27.85,62.66,41.78"/>
  <path class="cls-1" d="m474.57,222.24c-15.86,3.91-29.7,11-33.13,28.46-2.18,11.1-1.52,22.76-2.22,35.84,8.32-3.47,15.15-6.31,21.98-9.16"/>
  <path class="cls-1" d="m809.6,198.01c-5.35-2.49-10.1-.71-15.07,1.59-10.75,4.98-21.69,9.54-34.55,15.15,22,7.58,42.5,14.63,63,21.69"/>
  <path class="cls-1" d="m420.26,268.2c-3.34-.56-7.13-.29-9.95-1.82-10.73-5.84-21.15-12.27-31.66-18.46-8.28,2.63-16.34,5.18-24.4,7.74"/>
  <path class="cls-1" d="m911.54,296.6c-13.37.56-26.73,1.3-40.11,1.63-18.93.46-37.88.94-56.81.64-4.76-.08-9.47-3.1-14.21-4.77"/>
  <path class="cls-1" d="m274.05,228.93c-19.72-12.89-39.45-25.78-57.93-37.86-7.35,1.96-13.72,3.19-19.71,5.43-3.66,1.37-6.74,4.3-10.09,6.53"/>
  <path class="cls-1" d="m210.55,421.93c18.38,19.77,36.76,39.55,55.14,59.32"/>
  <path class="cls-1" d="m871.43,218.9c-15.6-5.29-31.18-10.62-46.8-15.85-3.84-1.29-7.79-2.25-11.69-3.37"/>
  <path class="cls-1" d="m324.18,375.98c19.5,16.15,38.99,32.31,58.49,48.46"/>
  <path class="cls-1" d="m863.91,340.05c-3.13,12.52-6.25,25.03-9.82,39.33,19.02,9.11,38.23,18.31,57.45,27.51"/>
  <path class="cls-1" d="m659.21,64.33c-13.65-2.79-27.74-4.28-40.81-8.75-11.32-3.87-22.45-5.13-33.48-2.64-11.43,2.58-21.28-2.3-31.79-3.82-9.86-1.43-19.53-4.24-29.25-6.57-1.07-.26-1.95-1.3-3.57-2.44,6.34-5.13,11.73-1.01,16.91.07,14.81,3.1,29.54,6.6,44.3,9.94"/>
  <path class="cls-1" d="m111.96,203.86c1.11-.56,2.22-1.13,3.62-1.84-.67-.81-1.2-1.72-1.97-2.32-14.66-11.47-14.6-11.16-32.59-6.78-20.81,5.07-41.75,9.56-62.65,14.27-5.27,1.19-10.58,2.24-15.87,3.35"/>
  <path class="cls-1" d="m345.06,26.74c20.14-5.4,37.89,5.52,56.8,8.44,5.38.83,10.6,2.7,15.89,4.09"/>
  <path class="cls-1" d="m732.74,303.29c-1.09,8.89-2.17,17.78-3.36,27.52,10.66-5.97,20.34-11.39,29.97-16.79,8.21,3.73,16.27,7.39,24.85,11.29,1.25-8.32,2.47-16.42,3.69-24.53"/>
  <path class="cls-1" d="m768.66,181.3c-6.02-3.01-12.04-6.02-17.93-8.96-3.88,1.52-7.15,2.8-10.28,4.02-18.3-5.63-36.41-11.2-54.51-16.78"/>
  <path class="cls-1" d="m198.01,331.7c-17.55,6.13-35.09,12.26-52.64,18.37-1.08.38-2.22.57-3.34.85"/>
  <path class="cls-1" d="m99.43,510.49c-7.58-11.38-15.17-22.75-23.04-34.56-24.42,9.77-49.15,19.66-73.88,29.55"/>
  <path class="cls-1" d="m491.28,110.29c8.5-4.44,17.01-6.91,26.78-3.46,14.61,5.17,29.48,9.58,44.24,14.32"/>
  <path class="cls-1" d="m69.35,238.12c-12.25,3.06-24.51,6.13-36.76,9.19-10.03,2.51-20.05,5.01-30.08,7.52"/>
  <path class="cls-1" d="m533.89,313.31c19.22,10.86,38.43,21.72,57.65,32.58"/>
  <path class="cls-1" d="m47.62,383.5c11.7,16.43,23.37,32.88,35.14,49.26.77,1.08,2.18,1.7,3.3,2.54"/>
  <path class="cls-1" d="m682.61,177.96c19.22,6.41,38.43,12.82,57.66,19.2,1.34.44,2.78.58,4.17.86"/>
  <path class="cls-1" d="m453.68,218.07c-16.82,3.72-26.67,15.8-26.77,32.58-.03,5.48,1.37,11.08-4.69,15.44-1.85,1.33-.29,7.4-.29,11.3"/>
  <path class="cls-1" d="m147.05,360.1c-2.19-2.82-4.37-5.63-6.82-8.78-30.04,10.45-60.07,20.9-90.1,31.34"/>
  <path class="cls-1" d="m45.95,428.61c3.62,15.6,7.24,31.19,10.87,46.79.52,2.24,1.11,4.46,1.67,6.69"/>
  <path class="cls-1" d="m658.38,259.01c-4.18,1.94-8.37,3.87-12.34,5.71-13.23-5.84-26.35-11.62-39.46-17.41"/>
  <path class="cls-1" d="m843.02,142.04c14.76,3.9,29.5,7.89,44.31,11.59,2.03.51,4.43-.45,6.66-.73"/>
  <path class="cls-1" d="m53.47,177.13c-16.99,3.62-33.98,7.24-50.97,10.86"/>
  <path class="cls-1" d="m783.7,265.69c-16.69,8.39-33.38,16.79-49.29,24.79v9.47"/>
  <path class="cls-1" d="m585.69,457.02c4.46,16.15,8.92,32.3,13.32,48.47.12.45-.51,1.1-.78,1.66"/>
  <path class="cls-1" d="m745.27,89.4c11.7,2.79,23.38,5.61,35.09,8.35,23.94,5.6,47.9,11.15,71.85,16.7,1.65.38,3.34.57,5.01.85"/>
  <path class="cls-1" d="m610.75,217.23c14.76,6.13,29.52,12.26,44.29,18.37,1.62.67,3.34,1.13,5.01,1.69"/>
  <path class="cls-1" d="m361.77,274.88c-16.43,5.85-32.86,11.7-49.29,17.55"/>
  <path class="cls-1" d="m330.86,30.91c-15.59-.79-30.65,1.58-46.33,7.04-1.65-1.04-4.4-2.79-7.14-4.53"/>
  <path class="cls-1" d="m899.84,196.34c-13.93-3.9-27.86-7.78-41.77-11.71-2.54-.72-5.02-1.65-7.52-2.49"/>
  <path class="cls-1" d="m868.93,447.83c-15.86,12.84-31.71,25.67-48.15,38.98-16.98-9.59-34.55-18.6-51.14-29.17-13.56-8.64-27.86-12.44-43.58-12.32"/>
  <path class="cls-1" d="m60.99,196.34c-.56-1.95-1.44-3.87-1.61-5.85-.74-8.52-2.74-16.29-10.91-20.52-15.28,3.21-30.62,6.44-45.96,9.66"/>
  <path class="cls-1" d="m588.2,455.35c11.42,2.23,22.82,4.54,34.26,6.64,4.41.81,8.9,1.16,13.36,1.71"/>
  <path class="cls-1" d="m563.13,195.51c7.51-2.52,15.03-5.05,22.02-7.4,21.84,8.33,43.25,16.5,65.07,24.83.23-5.69,2.7-11-4.06-16.83-1.16,5.56-1.99,9.58-2.82,13.6"/>
  <path class="cls-1" d="m705.17,75.2c-12.77-2.95-25.55-5.89-38.93-8.98-3.05,6.29-8.29,3.89-12.85,3.03-8.42-1.6-16.73-3.8-25.08-5.75"/>
  <path class="cls-1" d="m330.02,314.99c-15.87,5.85-31.75,11.7-47.62,17.55"/>
  <path class="cls-1" d="m519.68,180.47c29.34,12.02,58.68,24.04,88.57,36.28,6.93-2.93,14.74-6.24,22.56-9.54"/>
  <path class="cls-1" d="m911.54,340.05c-31.47-.56-62.95-.79-94.4-1.96-5.92-.22-11.68-4.24-17.57-6.37-2.98-1.08-6.07-1.86-10.21-3.1.41,2.88.72,5.06,1.03,7.25"/>
  <path class="cls-1" d="m787.05,347.57c-6.96-2.51-14.08-4.66-20.85-7.61-8.79-3.82-17.31-8.27-25.94-12.45"/>
  <path class="cls-1" d="m645.01,198.85c-8.63-3.62-17.19-7.44-25.92-10.81-11.34-4.38-22.82-8.4-34.24-12.58"/>
  <path class="cls-1" d="m258.17,236.45c-3.04.64-6.09,1.28-9.85,2.07-.79,1.97-1.81,4.5-3.01,7.51-11.87-8.42-23.78-16.88-35.52-25.21-15.91,4.38-31.81,8.75-47.71,13.13"/>
  <path class="cls-1" d="m584.02,145.38c10.58,3.06,21.23,5.92,31.73,9.27,6.54,2.08,12.85,4.89,18.74,7.18,8.21-2.78,16.05-5.43,23.89-8.09"/>
  <path class="cls-1" d="m881.46,120.31c-7.21-1.8-14.42-3.61-22.6-5.66-1.71,8.58-3.34,16.72-4.97,24.87"/>
  <path class="cls-1" d="m274.05,127c0-2.23.12-4.46-.03-6.68-.18-2.85-.58-5.68-.85-8.18-17.17,3.2-32.8,6.1-48.42,9.01"/>
  <path class="cls-1" d="m871.43,220.57c-28.42,14.74-56.84,29.47-84.69,43.91-1.89,12.39-3.72,24.34-5.55,36.29"/>
  <path class="cls-1" d="m282.4,374.31c-.56-10.3-1.07-20.61-1.7-30.91-.18-3.03-.68-6.05-1.28-11.11,16.61,14.14,31.52,26.83,46.42,39.52"/>
  <path class="cls-1" d="m746.94,85.22c-11.14-2.51-22.47-4.39-33.33-7.8-4.95-1.55-8.17-.59-11.78,1.95"/>
  <path class="cls-1" d="m849.71,180.47c-7.8-2.81-14.27,1.71-20.82,4.34-8.07,3.23-15.66,7.64-23.46,11.54"/>
  <path class="cls-1" d="m643.34,108.62c-10.23,5.73-6.46,16.6-9.11,25.09-.73,2.35-.52,5-.68,6.82-6.15-2.38-12.32-4.77-16.79-6.5-10.54,3.88-19.55,7.2-28.57,10.52"/>
  <path class="cls-1" d="m911.54,117.81c-9.19-1.67-18.35-3.54-27.58-4.95-6.67-1.01-13.55-4.15-20.04.77"/>
  <path class="cls-1" d="m342.56,268.2c-4.71-3.38-9.41-6.76-14.33-10.29-9.97,3.7-19.96,7.42-29.95,11.13"/>
  <path class="cls-1" d="m911.54,281.57c-20.61,1.11-41.21,2.46-61.83,3.22-7.62.28-14.85.08-21,5.84-2.62,2.45-6.56,3.47-9.9,5.14"/>
  <path class="cls-1" d="m753.63,507.99c-14.48-8.91-28.96-17.82-43.45-26.74"/>
  <path class="cls-1" d="m609.08,135.35c-14.48-4.18-28.96-8.36-43.45-12.53"/>
  <path class="cls-1" d="m797.91,476.24c-14.2,11.14-28.41,22.28-42.61,33.42"/>
  <path class="cls-1" d="m235.61,298.28c14.48,11.42,28.96,22.84,43.45,34.26"/>
  <path class="cls-1" d="m179.63,86.89c-4.46,1.11-9.18,1.63-13.31,3.47-8.74,3.87-11.95,11.5-10.13,21.61.34,1.89.05,3.89.05,5.84v11c4.62-1.33,9.76-3.28,15.07-4.13,2.76-.44,7.82-2.5,7.49,3.99"/>
  <path class="cls-1" d="m750.28,448.67c-14.03,10.17-28.05,20.33-42.1,30.51-10.5-1.5-21.38-3.05-32.26-4.61"/>
  <path class="cls-1" d="m659.21,203.03c19.22,6.96,38.44,13.92,57.65,20.89,3.52,1.28,7.01,2.63,12.31,4.62,5.13-2.28,12.32-5.46,19.41-8.6,1.05-6.33,2.08-12.48,3.18-19.13,7.83-3.43,15.71-6.87,23.59-10.32"/>
  <path class="cls-1" d="m831.33,249.82c-1.11,8.36-2.09,16.73-3.46,25.04-.25,1.53-1.82,3.34-3.26,4.12-20.82,11.26-41.73,22.36-62.62,33.5"/>
  <path class="cls-1" d="m716.86,442.82c-13.93,8.91-27.85,17.82-41.78,26.74"/>
  <path class="cls-1" d="m456.19,100.26c18.1,5.85,36.15,11.89,54.32,17.49,20.12,6.2,39.52,14.59,60.1,19.44,4.46,1.05,8.4,4.28,12.57,6.51"/>
  <path class="cls-1" d="m619.11,428.61h7.54c.18.58.36,1.16.53,1.74-11.32,6.66-22.68,13.28-33.95,20.02-2.38,1.42-4.48,3.31-6.71,4.98"/>
  <path class="cls-1" d="m638.33,161.25c13.65,5.01,27.29,10.03,40.94,15.04"/>
  <path class="cls-1" d="m675.09,321.67c-.56,7.24-1.08,14.48-1.68,21.72-.51,6.13-1.1,12.25-1.66,18.38"/>
  <path class="cls-1" d="m653.36,470.39c1.39,8.36,2.5,16.77,4.28,25.04,1.11,5.13,3.24,10.05,4.91,15.06"/>
  <path class="cls-1" d="m41.78,158.75c-13.09,2.51-26.18,5.01-39.27,7.52"/>
  <path class="cls-1" d="m461.2,141.2c-10.03-3.9-20.08-7.74-30.06-11.73-2.88-1.15-5.58-2.75-8.37-4.14"/>
  <path class="cls-1" d="m610.75,510.49c-8.91-1.67-17.84-3.28-26.73-5.04-5.04-.99-10.01-2.34-15.05-3.29-11.7-2.21-20.35-9.52-29.31-16.65-13.38-10.64-27.22-20.7-40.87-31"/>
  <path class="cls-1" d="m76.87,142.04c4.38-.58,7.96-.28,11.86,3.16,9.52,8.37,19.89,15.78,29.91,23.58"/>
  <path class="cls-1" d="m164.59,201.36c-12.03,2.86-24.05,5.71-35.53,8.44,1.03,11.03,1.99,21.35,2.95,31.67"/>
  <path class="cls-1" d="m838.85,270.7c8.91-4.73,17.73-9.66,26.79-14.09,2.69-1.32,6.46-2.43,9.07-1.58,12.4,4,24.57,8.71,36.83,13.16"/>
  <path class="cls-1" d="m524.7,205.53c-12.81,4.46-25.62,8.91-38.43,13.37"/>
  <path class="cls-1" d="m872.27,253.16c8.91-5.01,17.99-9.77,26.65-15.18,3.05-1.91,6.69-5.11,7.33-8.27,2.84-13.99,4.69-28.17,7.04-43.17-9.92-2.55-18.37-4.73-26.82-6.9"/>
  <path class="cls-1" d="m890.65,115.3c-13.75,3.69-11.2,16.32-14.19,25.9-.44,1.42-.73,2.88-1.27,5.06-4.98-1.23-9.38-2.31-13.79-3.39"/>
  <path class="cls-1" d="m104.44,365.95c-1.67,1.95-3.43,3.83-5,5.86-8.32,10.78-8.91,24.13-1.69,36.75"/>
  <path class="cls-1" d="m591.54,426.11c-12.81,7.52-25.62,15.04-38.43,22.56"/>
  <path class="cls-1" d="m752.79,117.81c-10.03-2.23-20.06-4.4-30.07-6.72-2.56-.59-5.02-1.63-7.53-2.47"/>
  <path class="cls-1" d="m157.91,235.61c13.93,10.86,27.9,21.66,41.76,32.61,11.5,9.09,22.85,18.36,34.27,27.55"/>
  <path class="cls-1" d="m248.98,47.62v-8.77h-29.88c-13.83,14.9-33.75,9.09-51.69,14.71-.94-6.69-1.64-11.75-2.64-18.89,1.38-1.15,3.94-3.29,6.51-5.43"/>
  <path class="cls-1" d="m384.33,426.11c.84,2.78,2.31,5.55,2.39,8.36.3,9.74.11,19.49.11,29.24"/>
  <path class="cls-1" d="m36.76,388.51c2.51,10.58,5.06,21.16,7.47,31.76.36,1.59.05,3.33.05,5"/>
  <path class="cls-1" d="m391.02,296.6c-4.18-2.5-8.37-5-14.14-8.44-14.33,5.59-29.76,11.61-45.18,17.63"/>
  <path class="cls-1" d="m167.94,86.06c-11.43.96-18.22,8.18-18.42,19.22-.11,6.14-.65,12.27-1.01,18.68,3.33,2.42,7.2,5.24,11.08,8.06"/>
  <path class="cls-1" d="m719.37,84.39c-15.87-3.62-31.75-7.24-47.62-10.87-2.24-.51-4.46-1.11-6.69-1.66"/>
  <path class="cls-1" d="m634.15,141.2c16.15,5.57,32.31,11.14,48.46,16.71"/>
  <path class="cls-1" d="m794.57,169.61c-.43-14.62,2.07-28.78,5.92-43.13,14.87,4.07,28.9,7.9,42.92,11.73-.07.74-.14,1.47-.21,2.21-1.73.26-3.46.52-5.19.79"/>
  <path class="cls-1" d="m909.03,202.19c-11.66,5.92-23.32,11.84-34.8,17.66-1.76,11.06-3.53,22.18-5.3,33.31"/>
  <path class="cls-1" d="m432.79,50.13c6.87,2.5,13.4,2.84,20.99,1.4,6.73-1.28,14.38,2.18,21.61,3.66,1.18.24,2.18,1.26,3.36,1.6q11.68,3.32,11.69,15.07"/>
  <path class="cls-1" d="m553.94,223.08c3.84-14.63-2.2-21.76-16.58-25.56-6.53-1.73-12.15-3.22-18.51-1.17"/>
  <path class="cls-1" d="m292.43,66.84c-10.02,4.59-14.7,12.4-14.22,23.39.13,3.06.02,6.13.02,9.19"/>
  <path class="cls-1" d="m437.8,326.68c-13.37-8.91-26.74-17.82-40.1-26.75-1.48-.99-2.85-2.14-4.43-3.35-12.31,4.69-24.83,9.45-37.35,14.22"/>
  <path class="cls-1" d="m212.22,188.82c-22.8-14.82-45.6-29.63-68.27-44.36-4.7,1.54-9.16,3.39-13.61.08"/>
  <path class="cls-1" d="m409.4,161.25c10.03,4.18,20.12,8.21,30.06,12.56,20.1,8.81,40.12,17.79,60.17,26.7"/>
  <path class="cls-1" d="m137.02,426.11c-10.04,4.13-20.09,8.26-30.2,12.42-1.01-1.27-2.12-2.67-3.22-4.07"/>
  <path class="cls-1" d="m231.43,331.7c9.75,8.08,19.6,16.04,29.22,24.26,11.25,9.62,22.31,19.46,33.45,29.21"/>
  <path class="cls-1" d="m261.51,234.78c4.77-1.27,9.53-2.54,15.7-4.19,10.51,7.06,22.05,14.81,33.59,22.57"/>
  <path class="cls-1" d="m584.02,149.56v25.48c-7.74-3.87-14.33-7.12-20.88-10.45-11.48-5.84-22.5-3.26-32.81,1.81-10.06-3.52-19.61-6.68-28.97-10.28-2.26-.87-3.94-3.22-5.89-4.89"/>
  <path class="cls-1" d="m752.79,115.3c-11.14-3.06-22.28-6.13-33.42-9.19"/>
  <path class="cls-1" d="m388.51,470.39v33.42"/>
  <path class="cls-1" d="m137.02,163.76c-6.69-4.45-13.38-8.89-20.62-13.7-3.94.87-8.37,1.86-12.8,2.84"/>
  <path class="cls-1" d="m219.74,254.83c8.68-2.34,17.36-4.67,27.23-7.33,10.05,6.99,21.08,14.66,32.44,22.57.46-1.81.89-3.51,1.32-5.21"/>
  <path class="cls-1" d="m213.05,124.49c-6.96,1.11-13.93,2.22-20.89,3.34-10.31,1.66-20.61,3.34-30.91,5.01"/>
  <path class="cls-1" d="m728.56,330.86c-11.14,6.41-22.28,12.81-33.42,19.22"/>
  <path class="cls-1" d="m242.3,210.55c-8.41,2.33-16.82,4.65-27.08,7.49,5.43,3.98,9.51,7.11,13.72,10.04,14.45,10.07,28.74,20.41,43.53,29.95,6.96,4.49,14.94,7.39,22.46,11.01"/>
  <path class="cls-1" d="m40.1,113.63c1.45-5.8-.72-6.16-3.41-5.74-.55.83-1.1,1.66-1.65,2.49,13.84,10.41,27.68,20.83,42.07,31.65-8.56.81-16.2,6.47-25.31,3.35"/>
  <path class="cls-1" d="m158.75,190.5c-10.86,2.51-21.72,5.01-32.58,7.52"/>
  <path class="cls-1" d="m552.27,223.92c-1.67.28-3.39.96-5.01.77-16.19-1.87-31.3,1.89-45.99,8.36-4.25,1.87-8.83,3.02-14.57,4.94,1.69-12.18,1.53-23.33-13.72-26.12-4.78,1.36-10.37,2.95-15.96,4.53"/>
  <path class="cls-1" d="m771.17,122.82c-5.88-1.24-11.77-2.47-17.65-3.71-.08-.7-.16-1.41-.24-2.11,1.51-.29,3.13-1.09,4.5-.78,10.41,2.39,20.76,4.99,31.13,7.53-.14.91-.28,1.81-.42,2.72-4.66-.66-9.32-1.31-13.98-1.97"/>
  <path class="cls-1" d="m532.22,436.13c11.89,12.26,27.41,15.54,43.44,17.56,3.63.46,7.24,1.1,10.86,1.66"/>
  <path class="cls-1" d="m791.22,510.49c7.26-5.83,14.51-11.66,22.16-17.8,10.83,5.85,21.91,11.82,32.98,17.8"/>
  <path class="cls-1" d="m416.92,28.41c-20.89-5.85-41.77-11.71-62.67-17.53-3.51-.98-7.07-1.78-10.86-2.73,0,8.57-.49,16.14.31,23.57.23,2.16,3.84,4.88,6.43,5.72,13.82,4.51,27.64,9.21,41.8,12.35,5.66,1.25,12.18-1.32,18.3-2.17,1.68-.23,3.34-.55,5.01-.83"/>
  <path class="cls-1" d="m758.64,182.14c13.93,4.73,27.85,9.47,41.78,14.2"/>
  <path class="cls-1" d="m387.67,335.04c-10.58-6.96-21.17-13.93-31.75-20.89"/>
  <path class="cls-1" d="m624.96,426.11c-10.58-6.68-21.17-13.37-31.75-20.05"/>
  <path class="cls-1" d="m46.79,73.52c-2.79-.28-5.65-1.12-8.34-.73-7.56,1.09-15.05,2.68-22.57,4.07"/>
  <path class="cls-1" d="m121.15,225.59c-.7,7.84,6.49,11.19,10.39,15.55,9.15,10.22,20.24,18.71,30.55,27.9"/>
  <path class="cls-1" d="m419.42,104.44c-.84-7.41-3.66-15.21,6.44-22.22-11.64-3.21-21.58-5.95-31.51-8.69"/>
  <path class="cls-1" d="m165.43,272.37c18.1,15.87,36.22,31.73,54.27,47.67.87.76,1.15,2.18,1.71,3.3"/>
  <path class="cls-1" d="m615.77,426.94c-6.68-.56-13.77.07-19.94-2-6.35-2.13-11.81-6.91-17.66-10.53"/>
  <path class="cls-1" d="m298.28,270.7c4.37,3.18,8.75,6.36,12.62,9.18,6.28-1.8,11.87-3.4,17.46-5"/>
  <path class="cls-1" d="m474.57,162.09c-10.03-3.9-20.05-7.8-30.08-11.7"/>
  <path class="cls-1" d="m690.13,181.3c-1.67,10.03-3.34,20.05-5.01,30.08"/>
  <path class="cls-1" d="m439.48,172.95c.47-8.08.93-16.16,1.41-24.4-9.75-3.77-19.78-7.65-29.82-11.53"/>
  <path class="cls-1" d="m505.48,52.64c13.65,3.62,27.2,7.63,40.96,10.76,15.49,3.52,31.17,6.2,46.75,9.38.7.14,1.13,1.58,1.69,2.42"/>
  <path class="cls-1" d="m232.27,24.23c-.92-7.37-6.15-10.21-12.54-10.73-6.12-.49-13.28-2.11-16.06,7.41-3.08-1.16-6.04-3.21-8.99-3.19-8.92.06-17.84.78-26.72,1.63-1.76.17-3.36,2.09-5.03,3.21"/>
  <path class="cls-1" d="m593.21,53.47c11.14,2.79,22.26,5.64,33.45,8.22.88.2,2.2-1.53,3.31-2.37"/>
  <path class="cls-1" d="m390.18,340.05c-.41-3.88-.81-7.77-1.2-11.48,2.35-1.56,4.35-2.88,8.51-5.63-2.09-.91-3.46-1.49-4.8-2.11-4.63-2.13-8.13-.64-11.74,3.6,2.86,1.8,5.21,3.28,7.56,4.76"/>
  <path class="cls-1" d="m208.04,48.46c-2.22,9.91-.76,19.6,1.67,29.24"/>
  <path class="cls-1" d="m803.76,146.21c-.92,2.76-1.84,5.52-2.9,8.71,3.81,3.02,5.46,6.38,1.27,10.54-5.71,5.66-13.28,6.77-19.25,2.47"/>
  <path class="cls-1" d="m160.42,20.89c-11.78,8.11-5.73,19.73-5.76,30.08,0,4.18,1.02,8.35,1.58,12.53"/>
  <path class="cls-1" d="m634.98,162.92c-1.11,9.47-2.23,18.94-3.34,28.41"/>
  <path class="cls-1" d="m807.1,132.85c9.19,2.23,18.38,4.46,27.57,6.68"/>
  <path class="cls-1" d="m221.41,97.75c-16.75,1.47-33.51,2.94-50.38,4.42-1.47,5.74-2.94,9.8.95,14.08,1.63,1.79,1.8,4.89,2.64,7.4"/>
  <path class="cls-1" d="m2.51,218.07c6.24,7.2,5.47,16.74,8.34,25.07.95,2.75,1.69,5.56,2.52,8.35"/>
  <path class="cls-1" d="m482.09,147.05v-11.72c21.56,8.06,42.11,15.73,62.66,23.41"/>
  <path class="cls-1" d="m867.25,111.12c-9.19-2.23-18.38-4.46-27.57-6.68"/>
  <path class="cls-1" d="m158.75,187.15c-5.57-4.18-11.2-8.28-16.7-12.55-7.48-5.81-15.36-3.65-23.42-1.71-8.01,1.93-16.15,3.36-25.78,5.33,9.13,7.31,17.46,13.97,25.79,20.63"/>
  <path class="cls-1" d="m444.49,324.18c-15.1,6.27-30.19,12.53-46.1,19.13-1.6-.91-3.97-2.27-6.34-3.62-.61-.42-1.22-.84-1.82-1.27-1.13,1.94-2.26,3.87-3.39,5.81"/>
  <path class="cls-1" d="m324.18,257.34c-11.76-7.48-22.32,1.18-33.41,2.59-2.3.29-4.47,1.59-6.69,2.43"/>
  <path class="cls-1" d="m84.39,421.93c1.39,9.9,2.46,19.75,9.9,27.69,3.53,3.76,5.7,8.79,8.48,13.25"/>
  <path class="cls-1" d="m422.77,121.98c18.27-4.43,33.98,3.94,50.11,10.07,2.07.79,3.92,2.18,5.87,3.3"/>
  <path class="cls-1" d="m267.36,483.76c1.39,8.91,2.79,17.82,4.18,26.74"/>
  <path class="cls-1" d="m677.59,483.76c2.23,8.91,4.46,17.82,6.68,26.74"/>
  <path class="cls-1" d="m130.34,213.05c8.91,6.96,17.82,13.93,26.74,20.89"/>
  <path class="cls-1" d="m568.98,139.53c-.84,8.91-1.67,17.82-2.51,26.74"/>
  <path class="cls-1" d="m520.52,40.1c-8.77-1.62-17.54-3.25-26.31-4.87.22-1.15.44-2.29.65-3.44,9.85-1.19,19.04,2.1,28.17,5.81"/>
  <path class="cls-1" d="m222.24,41.78c-10.57,4.96-11.39,14.29-10.86,24.23"/>
  <path class="cls-1" d="m883.13,177.96h-30.08"/>
  <path class="cls-1" d="m557.28,177.13c8.63,3.62,17.27,7.24,25.9,10.86"/>
  <path class="cls-1" d="m552.27,205.53c-4.73-.28-9.47-.76-14.2-.77-4.18-.01-8.35.5-12.53.77"/>
  <path class="cls-1" d="m663.39,96.92c-7.24,1.95-14.48,3.9-21.72,5.85-3.27-1.56-6.53-3.11-10.45-4.97v-14.16c-13.41-3.01-27.38-6.14-41.36-9.28"/>
  <path class="cls-1" d="m86.06,205.53c1.95,8.63,3.9,17.27,5.85,25.9"/>
  <path class="cls-1" d="m313.31,124.49v-8.08c15.47,6.88,29.02,12.97,42.63,18.9,3.79,1.65,7.75,2.92,11.71,4.11.61.18,1.64-1.01,2.48-1.57"/>
  <path class="cls-1" d="m331.7,5.85c0,11.14-.04,22.28.07,33.42,0,.84,1.04,1.67,1.6,2.51"/>
  <path class="cls-1" d="m342.56,9.19c-.83-.28-1.67-.57-3.88-1.32.52,9.91,1.01,19.36,1.5,28.82-1.16.06-2.31.12-3.47.18v-14.32"/>
  <path class="cls-1" d="m421.93,123.65c-9.91-.44-13.33,2.25-14.09,12.54-.57,7.76-.07,15.59-.15,23.39-.02,1.67-.52,3.34-.8,5.01"/>
  <path class="cls-1" d="m190.5,200.52c7.24,5.29,14.59,10.44,21.63,15.99,1.46,1.15,1.76,3.78,2.6,5.73"/>
  <path class="cls-1" d="m487.93,111.12c-.56,8.36-1.11,16.71-1.67,25.07"/>
  <path class="cls-1" d="m526.37,124.49c-.56,8.36-1.11,16.71-1.67,25.07"/>
  <path class="cls-1" d="m295.77,91.07c5.01,2.23,10.1,4.31,15.02,6.73,5.1,2.51,9.6,2.96,15.23.33,3.22-1.5,8.32.25,12.33,1.39,11.24,3.21,22.07,9.21,35.53,2.56-.57,4.13-.91,6.59-1.25,9.05"/>
  <path class="cls-1" d="m332.53,61.83c15.32,5.57,30.64,11.14,45.95,16.71"/>
  <path class="cls-1" d="m569.81,297.44c-11.14,5.29-22.28,10.58-33.42,15.87"/>
  <path class="cls-1" d="m469.55,91.91c-8.08-2.51-16.15-5.01-24.23-7.52"/>
  <path class="cls-1" d="m532.22,167.1c7.2,3.17,14.4,6.33,22.2,9.76,4.72-2.08,9.64-4.25,14.57-6.42"/>
  <path class="cls-1" d="m314.15,46.79c-8.08-2.79-16.15-5.57-24.23-8.36"/>
  <path class="cls-1" d="m112.79,102.77c-8.4,1.1-16.79,2.2-25.81,3.38-1.38-.78-3.66-2.08-5.94-3.38"/>
  <path class="cls-1" d="m708.51,236.45c-8.08-3.06-16.15-6.13-24.23-9.19"/>
  <path class="cls-1" d="m83.55,106.94c-2.23.56-4.46,1.11-8.88,2.22,15.59,8.98,29.78,17.17,43.98,25.35"/>
  <path class="cls-1" d="m431.96,31.75v-9.45c10.47,1.26,20.37,1.92,30.05,3.77,7.13,1.37,13.89,4.54,20.95,6.41,3.45.91,7.21.67,10.83.95"/>
  <path class="cls-1" d="m457.86,25.07c-7.2-3.11-13.95-8.64-22.56-4.18"/>
  <path class="cls-1" d="m559.79,198.01c-.28,7.8-.56,15.6-.84,23.39"/>
  <path class="cls-1" d="m431.12,59.32c.28,7.8.56,15.6.84,23.39"/>
  <path class="cls-1" d="m369.29,121.98c-7.8-3.34-15.6-6.68-23.39-10.03"/>
  <path class="cls-1" d="m309.14,74.36c1.17,4.09,2.34,8.17,3.51,12.23-6.58,1.35-12.15,2.5-17.71,3.64"/>
  <path class="cls-1" d="m312.48,76.87c13.07-2.98,23.34,5.8,35.06,8.47,4.07.93,7.83,3.22,11.72,4.89"/>
  <path class="cls-1" d="m3.34,71.85c15.48,6.68,20.92,14.6,20.05,29.24"/>
  <path class="cls-1" d="m120.31,231.43c-16.16-1.05-31.96,1.32-47.62,5.01"/>
  <path class="cls-1" d="m454.51,38.43c15.93,4.84,31.9,9.49,48.46,11.7"/>
  <path class="cls-1" d="m41.78,106.94c11.01-3.67,25.85,3.18,28.88,15.13,1.97,7.75,5.87,13.19,11.22,18.29"/>
  <path class="cls-1" d="m493.78,50.13v22.14h-6.65c2.45,4.39,3.47,8.91,6,10.02,2.49,1.1,6.54-1.11,9.82-2.15,1.51-.48,2.8-1.61,4.2-2.45"/>
  <path class="cls-1" d="m443.65,120.31v-11.56c-4.37-.68-8.03-1.24-11.7-1.81"/>
  <path class="cls-1" d="m497.13,50.97v22.56"/>
  <path class="cls-1" d="m129.5,401.88c2.23,5.57,4.28,11.22,6.76,16.68,1.23,2.71,3.94,4.86,4.72,7.61.63,2.21,6.06,4.95.21,7.46"/>
  <path class="cls-1" d="m96.08,153.73l-22.56,5.01"/>
  <path class="cls-1" d="m643.34,265.69c-7.52,2.78-15.04,5.57-22.56,8.36"/>
  <path class="cls-1" d="m225.59,52.64c-2.14,2.06-4.27,4.12-5.55,5.35.83,6.04,1.49,10.8,2.1,15.27,3.69-.75,7.33-1.5,10.96-2.24"/>
  <path class="cls-1" d="m585.69,409.4c7.52,5.29,15.04,10.58,22.56,15.87"/>
  <path class="cls-1" d="m406.89,185.48c4.44-2.95,7.55-6.28,3.28-12.15-7.73,4.71-15.53,7.08-23.48-.46-2.89,7.13,1.23,11.53,5.37,13.91,3.13,1.81,8.15.36,12.33.36"/>
  <path class="cls-1" d="m353.42,106.94c-8.5,5.57-16.34,1.73-24.23-1.66-2.75-1.18-5.57-2.24-8.35-3.35"/>
  <path class="cls-1" d="m47.62,82.71c1.11,7.24,2.23,14.48,3.34,21.72"/>
  <path class="cls-1" d="m807.1,104.44c-1.67,7.24-3.34,14.48-5.01,21.72"/>
  <path class="cls-1" d="m715.19,170.44c-7.24,2.79-14.48,5.57-21.72,8.36"/>
  <path class="cls-1" d="m264.02,30.08c-8.38-4.42-17.23-3.14-25.88-1.54-6.2,1.15-11.91.74-17.57-1.8"/>
  <path class="cls-1" d="m195.51,266.53c.28,7.24.56,14.48.84,21.72"/>
  <path class="cls-1" d="m223.08,96.92c12.94-7.63,26.27-9.39,40.09-2.49,3,1.5,5.87,3.24,10.04,5.56,0-3.9.72-6.69-.13-8.87-3.64-9.38,3.42-15.83,6.16-23.37.67-1.86,3.67-3.99,5.67-4.06,11.13-.39,22.29-.19,33.62-.19.62,4.96,1.04,8.33,1.46,11.7"/>
  <path class="cls-1" d="m137.86,165.43c8.26,5.31,16.51,10.62,25.05,16.12,1.64-.47,4.17-1.19,6.69-1.91"/>
  <path class="cls-1" d="m186.32,198.85c-6.96-5.01-13.93-10.03-20.89-15.04"/>
  <path class="cls-1" d="m527.2,439.48v20.89"/>
  <path class="cls-1" d="m71.85,161.25c.56,4.46,1.22,8.9,1.63,13.37.23,2.49.04,5.01.04,7.52"/>
  <path class="cls-1" d="m35.09,111.96c-6.98,1.61-13.95,3.22-21.33,4.92.43,5.13.86,10.13,1.28,15.13"/>
  <path class="cls-1" d="m653.36,90.23c-6.96-1.67-13.93-3.34-20.89-5.01"/>
  <path class="cls-1" d="m216.4,256.5c-6.96,1.95-13.93,3.9-20.89,5.85"/>
  <path class="cls-1" d="m675.92,480.42c.48-5.51-1.86-8.55-7.51-9.24-4.77-.58-9.48-1.62-14.21-2.45"/>
  <path class="cls-1" d="m116.97,203.86c.84,6.41,1.66,12.81,2.54,19.21.04.31.49.72.81.8.52.14,1.1.04,1.66.04"/>
  <path class="cls-1" d="m163.76,190.5c14.48,9.47,28.96,18.94,43.45,28.41"/>
  <path class="cls-1" d="m92.74,177.13c-11.69-9.48-23.37-18.97-36.94-29.98,1.11,6.19,2.05,10.55,2.63,14.95.32,2.46.06,5.01.06,7.51"/>
  <path class="cls-1" d="m293.26,120.31c2.14,5.29-.85,10.67-6.69,11.64-2.17.36-4.45.06-6.67.06"/>
  <path class="cls-1" d="m377.65,124.49c-.56,6.68-1.11,13.37-1.67,20.05"/>
  <path class="cls-1" d="m683.44,228.93c-7.28,3.24-14.57,6.48-22.56,10.03v9.18"/>
  <path class="cls-1" d="m307.47,52.64c8.08,2.51,16.15,5.01,24.23,7.52"/>
  <path class="cls-1" d="m543.91,288.25c.28,6.68.56,13.37.84,20.05"/>
  <path class="cls-1" d="m205.53,15.87c-6.1-.91-11.96-7.07-18.38-.84"/>
  <path class="cls-1" d="m431.96,21.72c-5.89-1.82-11.79-3.64-17.68-5.46,7.68-4.43,14.09.99,21.02,2.12"/>
  <path class="cls-1" d="m64.33,141.2c-5.62.89-11.24,1.77-17.5,2.76-4.96-3.73-10.7-8.05-17.57-13.21,1.13,6.64,2.03,11.92,2.96,17.37,5.76,4.44,11.42,8.79,17.07,13.14"/>
  <path class="cls-1" d="m50.13,125.33c-6.73,1.47-13.46,2.94-20.59,4.49-4.43-3.16-9.47-6.75-14.5-10.34"/>
  <path class="cls-1" d="m307.47,64.33c.31,3.32.61,6.63.96,10.37-4.77,1.13-8.81,1.77-12.63,3.07-4.96,1.69-8.11,5.22-7.49,10.78.78,7.05,1.96,14.06,2.97,21.09.81.03,1.63.06,2.44.09.41-2.32.82-4.64,1.22-6.97"/>
  <path class="cls-1" d="m233.11,348.41c-.56-2.51-1.75-5.06-1.56-7.51.69-8.72-2.96-14.42-10.59-17.4-6.73,2.24-13.16,4.38-19.6,6.53"/>
  <path class="cls-1" d="m393.52,51.8v21.66c-3.52.96-8.02,2.18-12.53,3.41"/>
  <path class="cls-1" d="m279.89,102.77v30.08c-1.95-1.95-3.06-3.06-4.18-4.18"/>
  <path class="cls-1" d="m333.37,35.09c3.36,1.88,4.78,4.2,1.41,7.79,6.62,3.51,10.08.06,12.79-5.29"/>
  <path class="cls-1" d="m426.11,282.4c-.28,6.13-.56,12.25-.84,18.38"/>
  <path class="cls-1" d="m483.76,218.9c-1.95.56-3.9,1.13-5.61,1.62.48,6.44.96,12.85,1.43,19.27"/>
  <path class="cls-1" d="m407.73,87.73c-.28,6.13-.56,12.25-.84,18.38"/>
  <path class="cls-1" d="m893.15,242.3c6.13,2.51,12.25,5.01,18.38,7.52"/>
  <path class="cls-1" d="m350.08,2.51c12.25,2.23,24.47,4.7,36.78,6.56,4.9.74,10.01.12,15.02.12"/>
  <path class="cls-1" d="m218.9,76.87c-9.47,1.95-18.94,3.9-28.41,5.85"/>
  <path class="cls-1" d="m280.73,43.45c6.96,2.51,13.9,5.09,20.91,7.47,1.83.62,4.48,1.54,5.74.74,10.61-6.74,20.22-.94,30.19,1.74,6.64,1.78,12.81,4.12,20.25-.41,7.86-4.78,22.57,4.62,24.02,13.85"/>
  <path class="cls-1" d="m516.34,179.63c-.56,6.13-1.11,12.25-1.67,18.38"/>
  <path class="cls-1" d="m664.23,238.95c6.13,2.78,12.25,5.57,18.38,8.36"/>
  <path class="cls-1" d="m587.36,53.47c-.28,6.13-.56,12.25-.84,18.38"/>
  <path class="cls-1" d="m791.22,139.53c-.84,6.13-1.67,12.25-2.51,18.38"/>
  <path class="cls-1" d="m621.62,62.66c-.56,5.85-1.11,11.7-1.67,17.55"/>
  <path class="cls-1" d="m853.05,320c1.11,5.85,2.23,11.7,3.34,17.55"/>
  <path class="cls-1" d="m658.38,71.02c-.84,5.85-1.67,11.7-2.51,17.55"/>
  <path class="cls-1" d="m284.91,34.26c-8.14-1.71-16.37-5.8-24.23.84"/>
  <path class="cls-1" d="m426.11,130.34l-17.55,5.01"/>
  <path class="cls-1" d="m136.19,123.65c6.96,4.46,13.93,8.91,20.89,13.37"/>
  <path class="cls-1" d="m742.76,177.13c5.79,1.57,11.43,6.21,17.55.84"/>
  <path class="cls-1" d="m362.61,107.78c9.19,3.62,18.38,7.24,27.57,10.86"/>
  <path class="cls-1" d="m101.1,393.52c.28,5.57.56,11.14.84,16.71"/>
  <path class="cls-1" d="m324.18,31.75c.28,5.57.56,11.14.84,16.71"/>
  <path class="cls-1" d="m588.2,132.01c-5.57,1.67-11.14,3.34-16.71,5.01"/>
  <path class="cls-1" d="m362.61,91.07c10.86,3.9,21.72,7.8,32.58,11.7"/>
  <path class="cls-1" d="m457.02,265.69c-5.57,2.23-11.14,4.46-16.71,6.68"/>
  <path class="cls-1" d="m868.09,285.74c-5.29,3.62-10.58,7.24-15.87,10.86"/>
  <path class="cls-1" d="m911.54,156.24c-11.42-3.06-22.84-6.13-34.26-9.19"/>
  <path class="cls-1" d="m329.19,96.08c-5.57-2.51-11.14-5.01-16.71-7.52"/>
  <path class="cls-1" d="m452.01,106.11c-.28,5.57-.56,11.14-.84,16.71"/>
  <path class="cls-1" d="m487.1,27.57c-5.57-.28-11.14-.56-16.71-.84"/>
  <path class="cls-1" d="m395.19,82.71c-5.13-1.59-10.26-3.17-16.02-4.95-.45,5.45-.99,11.88-1.53,18.32"/>
  <path class="cls-1" d="m526.37,206.37v16.71"/>
  <path class="cls-1" d="m494.62,152.06c-5.57-1.95-11.17-3.81-16.7-5.87-8.21-3.07-16.4-5.37-25.09-1.69-2.66,1.13-5.55,1.72-8.34,2.55"/>
  <path class="cls-1" d="m619.11,91.07c-.28,5.57-.56,11.14-.84,16.71"/>
  <path class="cls-1" d="m157.91,161.25c-5.57,1.39-11.14,2.79-16.71,4.18"/>
  <path class="cls-1" d="m342.56,111.12c-.28,5.57-.56,11.14-.84,16.71"/>
  <path class="cls-1" d="m230.6,76.87c-8.08,1.95-16.15,3.9-24.23,5.85"/>
  <path class="cls-1" d="m352.58,69.35c-.28,5.57-.56,11.14-.84,16.71"/>
  <path class="cls-1" d="m271.54,81.88c-5.29-2.23-10.58-4.46-15.87-6.68"/>
  <path class="cls-1" d="m862.24,283.24c-5.29-2.23-10.58-4.46-15.87-6.68"/>
  <path class="cls-1" d="m394.36,10.86c6.36,1.59,12.11,6.03,19.22,4.18"/>
  <path class="cls-1" d="m2.51,121.15c9.47,7.8,18.94,15.6,28.41,23.39"/>
  <path class="cls-1" d="m317.49,101.1v15.87"/>
  <path class="cls-1" d="m141.2,135.35c-5.29,1.39-10.58,2.79-15.87,4.18"/>
  <path class="cls-1" d="m77.7,104.44c-5.29.84-10.58,1.67-15.87,2.51"/>
  <path class="cls-1" d="m327.52,60.99c-.28,5.29-.56,10.58-.84,15.87"/>
  <path class="cls-1" d="m294.93,108.62c6.41,3.06,12.81,6.13,19.22,9.19"/>
  <path class="cls-1" d="m373.47,259.84c-13.93,4.46-27.85,8.91-41.78,13.37"/>
  <path class="cls-1" d="m147.05,361.77c1.39,5.29,2.79,10.58,4.18,15.87"/>
  <path class="cls-1" d="m648.35,119.48c-.35-3.59-.69-7.17-1.13-11.77-.17-.04-1.61-.4-3.04-.76"/>
  <path class="cls-1" d="m230.6,72.69c5.9,4.87,4.37,12.1,5.85,18.38"/>
  <path class="cls-1" d="m909.03,160.42l-15.04-5.01"/>
  <path class="cls-1" d="m252.32,74.36v15.04"/>
  <path class="cls-1" d="m238.95,47.62c15.49.88,29.15,7.25,42.61,14.2"/>
  <path class="cls-1" d="m47.62,145.38c.13,10.12,1.58,19.28,11.59,25.24,5.87,3.49,10.69,8.74,15.98,13.19"/>
  <path class="cls-1" d="m431.12,45.12c0,3.06.16,6.14-.03,9.19-.36,5.79-4.16,6.84-9.16,6.76-6.19-.1-6.57-3.77-6.78-8.84h6.78v7.94"/>
  <path class="cls-1" d="m242.3,29.24c10.58,3.9,21.12,7.94,31.79,11.59,2.24.77,4.97.11,7.48.11"/>
  <path class="cls-1" d="m787.05,127.83c-1.59,11.81-.37,24.38-10.27,34,2.26,1.9,3.76,3.17,5.26,4.43"/>
  <path class="cls-1" d="m619.94,275.72c-5.01,2.23-10.03,4.46-15.04,6.68"/>
  <path class="cls-1" d="m274.05,98.59v15.04"/>
  <path class="cls-1" d="m893.15,436.13c6.13.28,12.25.56,18.38.84"/>
  <path class="cls-1" d="m72.69,121.15c13.65,9.19,27.29,18.38,40.94,27.57"/>
  <path class="cls-1" d="m199.69,24.23c-.26,1.39-.52,2.79-.86,4.62,6.61,2.61,13.34,5.26,20.08,7.91"/>
  <path class="cls-1" d="m679.27,102.77c-.85,2.78-1.7,5.56-2.76,9.01-10.21,3.07-20.84,6.26-32.33,9.71v8.02"/>
  <path class="cls-1" d="m365.12,273.21c5.13-1.6,10.26-3.2,16.71-5.21,0,2.7.16,6.06-.04,9.39-.31,5.48-.21,9.31,7.54,9.63,4.62.19,9.58,4.44,6.7,11.26"/>
  <path class="cls-1" d="m92.74,417.75c-6.71,7.53,1.66,9.03,5.01,12.53"/>
  <path class="cls-1" d="m693.47,99.43c-6.04-.78-12.08-1.55-19.86-2.55-3.1-8.46-13.55-1.7-20.24-6.64h5.01"/>
  <path class="cls-1" d="m360.94,57.65c2.75,3.63,5.38,6.39,10.82,7.03,6.85.81,13.41,4.11,20.09,6.34"/>
  <path class="cls-1" d="m187.15,174.62c-4.73,1.11-9.47,2.23-14.2,3.34"/>
  <path class="cls-1" d="m899.84,122.82c-4.73-.84-9.47-1.67-14.2-2.51"/>
  <path class="cls-1" d="m274.05,73.52c-4.88-2.66-9.02-3.69-15.23-1.32-7.57,2.89-16.52,2.16-24.88,3"/>
  <path class="cls-1" d="m383.5,259.84c11.24,3.46,20.41,9.9,28.78,18.86.22-.1,1.6-.7,2.97-1.31"/>
  <path class="cls-1" d="m430.29,106.11c-.56,4.73-1.11,9.47-1.67,14.2"/>
  <path class="cls-1" d="m544.75,118.64l-13.37,3.34"/>
  <path class="cls-1" d="m683.44,225.59c-4.46-1.67-8.91-3.34-13.37-5.01"/>
  <path class="cls-1" d="m235.61,28.41c-1.67-1.39-3.13-3.36-5.05-4.08-7.43-2.76-15-5.12-22.52-7.62"/>
  <path class="cls-1" d="m121.15,155.4c-4.46.56-8.91,1.11-13.37,1.67"/>
  <path class="cls-1" d="m360.1,26.74c.28,4.46.56,8.91.84,13.37"/>
  <path class="cls-1" d="m170.44,115.3c-6.41,1.44-12.81,6.93-19.22,0"/>
  <path class="cls-1" d="m652.53,467.88c-4.46-.84-8.91-1.67-13.37-2.51"/>
  <path class="cls-1" d="m394.36,265.69c-4.18,1.11-8.36,2.23-12.53,3.34"/>
  <path class="cls-1" d="m291.59,110.29c-.13,3.92,3.83,9.11-3.34,10.86"/>
  <path class="cls-1" d="m137.02,132.01c-4.73,1.11-9.47,2.23-14.2,3.34"/>
  <path class="cls-1" d="m111.12,133.68c-3.87,1.19-7.74,2.37-12.53,3.85v12.03"/>
  <path class="cls-1" d="m463.71,27.57c-.28,4.18-.56,8.36-.84,12.53"/>
  <path class="cls-1" d="m223.92,81.04l2.51,12.53"/>
  <path class="cls-1" d="m183.81,87.73l2.51,12.53"/>
  <path class="cls-1" d="m355.93,103.6c1.22-4.5,2.45-9.01,3.67-13.51.73.03,1.45.07,2.18.1v15.09"/>
  <path class="cls-1" d="m770.34,181.3c1.67-2.78,3.34-5.57,5.51-9.19h-8.02c-.1.47-.21.95-.31,1.42,1.22.64,2.43,1.28,3.65,1.92"/>
  <path class="cls-1" d="m893.99,485.43c-.15,1.68-.29,3.37-.44,5.05,1.02-.11,2.05-.23,3.07-.34-.6-1.85-1.2-3.7-1.8-5.54"/>
  <path class="cls-1" d="m426.11,264.02c4.18,2.51,8.36,5.01,12.53,7.52"/>
  <path class="cls-1" d="m615.77,81.88c-.56,8.36-1.11,16.71-1.67,25.07"/>
  <path class="cls-1" d="m573.99,55.98c-.28,4.18-.56,8.36-.84,12.53"/>
  <path class="cls-1" d="m695.14,100.26c3.99,1.02,7.99,2.03,13.49,3.43-9.91,2.83-17.97,5.13-26.02,7.43"/>
  <path class="cls-1" d="m665.06,102.77v11.7"/>
  <path class="cls-1" d="m543.91,48.46c-.28,3.9-.56,7.8-.84,11.7"/>
  <path class="cls-1" d="m533.05,157.07c-3.9,1.11-7.8,2.23-11.7,3.34"/>
  <path class="cls-1" d="m342.56,302.45c3.77,3.48,7.54,6.97,11.55,10.66-.42,2.14-.97,4.93-1.52,7.72"/>
  <path class="cls-1" d="m90.23,469.55c-3.9,1.67-7.8,3.34-11.7,5.01"/>
  <path class="cls-1" d="m515.51,41.78c-.28,3.9-.56,7.8-.84,11.7"/>
  <path class="cls-1" d="m271.54,65.17c-7.52.84-15.58.3-22.37,2.98-4.65,1.83-8.65-.15-12.72,1.2"/>
  <path class="cls-1" d="m309.97,78.54c-3.62,1.11-7.24,2.23-10.86,3.34"/>
  <path class="cls-1" d="m187.99,84.39c5.45,3.4,5.01,8.88,5.01,14.2"/>
  <path class="cls-1" d="m695.98,87.73c-.56,5.85-1.11,11.7-1.67,17.55"/>
  <path class="cls-1" d="m622.45,97.75c.56,10.58,1.11,21.17,1.67,31.75"/>
  <path class="cls-1" d="m812.11,101.93c5.01-5.61,10.61-.07,15.87-.84"/>
  <path class="cls-1" d="m270.7,99.43v11.7"/>
  <path class="cls-1" d="m428.61,106.11c-6.16.14-12.19-1.55-18.56,1.27-2.85,1.26-7.62-1.83-11.52-2.94"/>
  <path class="cls-1" d="m418.59,29.24c.56,7.24,1.11,14.48,1.67,21.72"/>
  <path class="cls-1" d="m2.51,89.4c9.04,9.65,22.21,12.57,32.58,20.05"/>
  <path class="cls-1" d="m488.77,35.09c-.56,3.62-1.11,7.24-1.67,10.86"/>
  <path class="cls-1" d="m419.42,86.06c-6.96-.56-13.93-1.11-20.89-1.67"/>
  <path class="cls-1" d="m660.05,103.6c-3.62,1.11-7.24,2.23-10.86,3.34"/>
  <path class="cls-1" d="m519.68,308.3c3.62,1.11,7.24,2.23,10.86,3.34"/>
  <path class="cls-1" d="m624.96,115.3c.36-1.37.72-2.75,1.14-4.33-4.98-1.23-9.7-2.4-14.41-3.57-.59.39-1.19.79-1.78,1.18,1.4,2.8,2.8,5.59,4.19,8.39"/>
  <path class="cls-1" d="m404.38,108.62c-3.34,2.79-6.68,5.57-10.03,8.36"/>
  <path class="cls-1" d="m497.96,157.07c-3.62.84-7.24,1.67-10.86,2.51"/>
  <path class="cls-1" d="m2.51,107.78c3.62,3.06,7.24,6.13,10.86,9.19"/>
  <path class="cls-1" d="m789.55,124.49c3.62.84,7.24,1.67,10.86,2.51"/>
  <path class="cls-1" d="m756.13,104.44c-.28,3.62-.56,7.24-.84,10.86"/>
  <path class="cls-1" d="m753.63,203.86c2.38,3.24,4.75,6.49,7.81,10.66-3.33,1.37-5.99,2.46-8.64,3.55"/>
  <path class="cls-1" d="m558.12,500.47c-.28,3.34-.56,6.68-.84,10.03"/>
  <path class="cls-1" d="m415.25,13.37l-10.03-2.51"/>
  <path class="cls-1" d="m370.96,142.04c5.29,3.06,10.58,6.13,15.87,9.19"/>
  <path class="cls-1" d="m129.5,147.05c-3.34,1.11-6.68,2.23-10.03,3.34"/>
  <path class="cls-1" d="m342.56,55.98l-10.03,2.51"/>
  <path class="cls-1" d="m362.61,60.99l-10.03-2.51"/>
  <path class="cls-1" d="m220.57,23.39c-5.59,4.62-10-1.31-15.04-1.67"/>
  <path class="cls-1" d="m490.44,50.13c-.28,3.34-.56,6.68-.84,10.03"/>
  <path class="cls-1" d="m666.73,212.22c-2.26,1.35-4.51,2.71-6.93,4.15-2.55-.78-5.33-1.63-8.11-2.48"/>
  <path class="cls-1" d="m238.12,38.43v9.86c-4.47,1.07-8.16,1.96-11.17,2.68.44,3.57.79,6.38,1.14,9.19"/>
  <path class="cls-1" d="m132.85,407.73c-6.41,1.67-12.81,3.34-19.22,5.01"/>
  <path class="cls-1" d="m185.48,414.41c.28,3.34.56,6.68.84,10.03"/>
  <path class="cls-1" d="m655.87,201.36c.56,1.67,1.62,3.36,1.55,5.01-.11,2.53-1,5.02-1.55,7.52"/>
  <path class="cls-1" d="m159.58,54.31v10.72c3.11-.52,6.15-1.03,9.19-1.53"/>
  <path class="cls-1" d="m430.29,32.58c7.4,1.81,14.79,3.63,22.56,5.53v12.85"/>
  <path class="cls-1" d="m201.36,84.39c-3.06.56-6.13,1.11-9.19,1.67"/>
  <path class="cls-1" d="m441.98,38.43c-.28,4.46-.56,8.91-.84,13.37"/>
  <path class="cls-1" d="m716.03,104.44c-2.51.84-5.01,1.67-7.52,2.51"/>
  <path class="cls-1" d="m335.87,10.03c-.28,3.06-.56,6.13-.84,9.19"/>
  <path class="cls-1" d="m167.94,53.47c.9,4.82,1.79,9.64,2.88,15.5.18-.18-.93.93-2.05,2.05"/>
  <path class="cls-1" d="m304.12,52.64v9.19"/>
  <path class="cls-1" d="m157.07,70.18c-1.01-1.53-2.03-3.05-3.34-5.03,8.67-1.59,4.81,4.61,6,7.54h8.2"/>
  <path class="cls-1" d="m481.25,135.35c-.84.84-2.17,1.55-2.41,2.53-.58,2.43-.66,4.99-.93,7.5"/>
  <path class="cls-1" d="m11.7,98.59c-3.06.84-6.13,1.67-9.19,2.51"/>
  <path class="cls-1" d="m81.88,127.83c-.56,3.06-1.11,6.13-1.67,9.19"/>
  <path class="cls-1" d="m725.22,230.6c-2.79,1.67-5.57,3.34-8.36,5.01"/>
  <path class="cls-1" d="m182.98,26.74c2.76.33,5.53.66,9.87,1.18-1.02-4.15-1.69-6.85-2.35-9.54"/>
  <path class="cls-1" d="m441.98,82.71c-5.85.56-11.7,1.11-17.55,1.67"/>
  <path class="cls-1" d="m624.12,83.55v9.19"/>
  <path class="cls-1" d="m454.51,27.57c-.28,3.06-.56,6.13-.84,9.19"/>
  <path class="cls-1" d="m2.51,84.39c1.67,2.51,3.34,5.01,5.01,7.52"/>
  <path class="cls-1" d="m495.45,142.04v9.19"/>
  <path class="cls-1" d="m835.5,284.07c-2.78-1.11-5.57-2.23-8.36-3.34"/>
  <path class="cls-1" d="m429.45,34.26v8.36"/>
  <path class="cls-1" d="m758.64,92.74c-.28,2.79-.56,5.57-.84,8.36"/>
  <path class="cls-1" d="m911.54,126.16c-2.79-.56-5.57-1.11-8.36-1.67"/>
  <path class="cls-1" d="m837.18,272.37c-2.78.84-5.57,1.67-8.36,2.51"/>
  <path class="cls-1" d="m87.73,107.78c.28,2.79.56,5.57.84,8.36"/>
  <path class="cls-1" d="m182.14,393.52c-.28,2.79-.56,5.57-.84,8.36"/>
  <path class="cls-1" d="m887.31,172.11c-2.79,1.39-5.57,2.79-8.36,4.18"/>
  <path class="cls-1" d="m157.91,40.94v8.36"/>
  <path class="cls-1" d="m223.92,58.49c2.21,1.43,4.42,2.86,6.82,4.41,1.87-.62,3.79-1.26,5.71-1.9"/>
  <path class="cls-1" d="m100.26,436.97c3.02,3.63,6.03,7.25,10.14,12.19,1-3,1.36-4.09,2.2-6.58.92-.34,3.48-1.31,6.05-2.27"/>
  <path class="cls-1" d="m76.87,111.96c-2.79.56-5.57,1.11-8.36,1.67"/>
  <path class="cls-1" d="m215.56,25.9c-.28,2.79-.56,5.57-.84,8.36"/>
  <path class="cls-1" d="m737.75,97.75v8.36"/>
  <path class="cls-1" d="m275.72,42.61c-.28,2.79-.56,5.57-.84,8.36"/>
  <path class="cls-1" d="m122.82,214.72c-.28,3.06-.56,6.13-.84,9.19"/>
  <path class="cls-1" d="m162.92,259.84c.28,3.62.56,7.24.84,10.86"/>
  <path class="cls-1" d="m848.04,299.95c.56,2.79,1.11,5.57,1.67,8.36"/>
  <path class="cls-1" d="m104.44,428.61c-.97,2.66-1.94,5.33-3.47,9.55-3.16-8.73-5.59-15.44-8.51-23.49-3.4,1.37-6.57,2.64-9.74,3.91"/>
  <path class="cls-1" d="m451.17,40.1c-4.73,0-9.48-.19-14.2.12-1.44.09-2.79,1.56-4.19,2.39"/>
  <path class="cls-1" d="m121.98,123.65c.56,3.62,1.11,7.24,1.67,10.86"/>
  <path class="cls-1" d="m161.25,248.14v8.36"/>
  <path class="cls-1" d="m179.63,85.22c-2.79-.28-5.57-.56-8.36-.84"/>
  <path class="cls-1" d="m382.66,10.03c-.28,2.51-.56,5.01-.84,7.52"/>
  <path class="cls-1" d="m390.18,11.7c-.28,2.51-.56,5.01-.84,7.52"/>
  <path class="cls-1" d="m296.6,55.98v7.52"/>
  <path class="cls-1" d="m666.73,206.37c0,1.67-.2,3.37.05,5.01.38,2.53,1.07,5.02,1.62,7.53"/>
  <path class="cls-1" d="m181.3,19.22c.62,2.42,1.24,4.83,2.14,8.36h-8.83"/>
  <path class="cls-1" d="m428.61,31.75c-2.51-.56-5.01-1.11-7.52-1.67"/>
  <path class="cls-1" d="m791.22,337.54c-.56,2.51-1.11,5.01-1.67,7.52"/>
  <path class="cls-1" d="m788.72,335.87c-.28,2.51-.56,5.01-.84,7.52"/>
  <path class="cls-1" d="m880.62,489.61c.84,0,1.68.05,2.5-.07.08-.01.05-1.52,0-1.53-1.11-.09-2.22-.07-3.34-.07"/>
  <path class="cls-1" d="m911.54,241.46l-7.52-2.51"/>
  <path class="cls-1" d="m309.14,280.73c-2.51,1.11-5.01,2.23-7.52,3.34"/>
  <path class="cls-1" d="m95.25,181.3v7.52"/>
  <path class="cls-1" d="m363.44,5.01c-.28,2.51-.56,5.01-.84,7.52"/>
  <path class="cls-1" d="m184.65,404.38c-.56,2.51-1.11,5.01-1.67,7.52"/>
  <path class="cls-1" d="m379.32,267.36c-2.23-1.67-4.46-3.34-6.68-5.01"/>
  <path class="cls-1" d="m123.65,223.92v7.52"/>
  <path class="cls-1" d="m213.05,69.35v7.52"/>
  <path class="cls-1" d="m673.42,100.26c-5.05.31-10.3,4.39-15.04-.84"/>
  <path class="cls-1" d="m365.95,64.33c-2.51.56-5.01,1.11-7.52,1.67"/>
  <path class="cls-1" d="m228.93,54.31c3.06-.28,6.13-.56,11.24-1.02-.83,2.77-1.44,4.82-2.05,6.87"/>
  <path class="cls-1" d="m265.69,55.98c.28,2.51.56,5.01.84,7.52"/>
  <path class="cls-1" d="m497.13,75.2v6.68"/>
  <path class="cls-1" d="m160.42,238.12c-.28,2.23-.56,4.46-.84,6.68"/>
  <path class="cls-1" d="m663.39,93.58c1.95.56,3.9,1.11,5.85,1.67"/>
  <path class="cls-1" d="m607.41,218.07v6.68"/>
  <path class="cls-1" d="m678.43,96.92c-1.95-.56-3.9-1.11-5.85-1.67"/>
  <path class="cls-1" d="m94.41,404.38c-.77.64-1.54,1.28-2.48,2.07,3.53,4.66,7.26,9.59,11.59,15.32.89-2.31,1.66-4.29,2.12-5.48,3.66-.61,7.49-1.24,11.33-1.88"/>
  <path class="cls-1" d="m474.57,218.9l-6.68-3.34"/>
  <path class="cls-1" d="m256.5,42.61c-.28,2.23-.56,4.46-.84,6.68"/>
  <path class="cls-1" d="m71.02,84.39c7.52,4.73,15.04,9.47,22.56,14.2"/>
  <path class="cls-1" d="m429.45,51.8c-2.23.28-4.46.56-6.68.84"/>
  <path class="cls-1" d="m631.64,99.43c-1.11,3.06-2.23,6.13-3.34,9.19"/>
  <path class="cls-1" d="m792.89,129.5v6.68"/>
  <path class="cls-1" d="m294.1,91.07c-.28,2.23-.56,4.46-.84,6.68"/>
  <path class="cls-1" d="m642.5,132.85c1.11,4.18,2.23,8.36,3.34,12.53"/>
  <path class="cls-1" d="m136.19,436.13c-4.8,2.09-9.27,6.23-13.14,3.38-2.76,1.5-4.42,2.4-6.08,3.3"/>
  <path class="cls-1" d="m410.23,17.55c-.28,2.23-.56,4.46-.84,6.68"/>
  <path class="cls-1" d="m380.15,119.48c-3.38.68-6.76,1.36-11.14,2.24-.19,2.72-.38,5.26-.56,7.79"/>
  <path class="cls-1" d="m12.53,102.77h-6.68"/>
  <path class="cls-1" d="m173.79,198.01c-1.95.56-3.9,1.11-5.85,1.67"/>
  <path class="cls-1" d="m359.27,263.18c-1.67-1.39-3.34-2.79-5.01-4.18"/>
  <path class="cls-1" d="m381.83,123.65c1.95.84,3.9,1.67,5.85,2.51"/>
  <path class="cls-1" d="m346.73,2.51c-.56,1.67-1.11,3.34-1.67,5.01"/>
  <path class="cls-1" d="m198.01,293.26c-.28,1.95-.56,3.9-.84,5.85"/>
  <path class="cls-1" d="m792.89,330.86l-2.51,5.01"/>
  <path class="cls-1" d="m504.65,66c-.28,1.95-.56,3.9-.84,5.85"/>
  <path class="cls-1" d="m367.62,54.31c-3.62.28-7.24.56-10.86.84"/>
  <path class="cls-1" d="m179.63,384.33v5.85"/>
  <path class="cls-1" d="m99.43,411.07l5.01,5.01"/>
  <path class="cls-1" d="m496.29,30.91c-1.95-.56-3.9-1.11-5.85-1.67"/>
  <path class="cls-1" d="m231.43,30.91c.28,1.95.56,3.9.84,5.85"/>
  <path class="cls-1" d="m117.81,127.83c-1.39,1.11-2.79,2.23-4.18,3.34"/>
  <path class="cls-1" d="m888.14,485.43c.56,1.67,1.11,3.34,1.67,5.01"/>
  <path class="cls-1" d="m386.84,121.15c-1.67.28-3.33.7-5.02.8-2.22.14-4.45.03-6.68.03"/>
  <path class="cls-1" d="m858.06,141.2c-3.34-.56-6.68-1.11-10.03-1.67"/>
  <path class="cls-1" d="m293.26,80.21c3.62,1.67,7.24,3.34,10.86,5.01"/>
  <path class="cls-1" d="m122.82,199.69c-.83.28-1.67.57-2.88.98,2.4,2.8,4.73,5.51,7.06,8.21"/>
  <path class="cls-1" d="m186.32,83.55c-1.45.2-2.9.41-4.35.61l.37,2.04c1.33-.33,2.66-.66,3.99-.99"/>
  <path class="cls-1" d="m62.66,82.71c-5.07-2.97-10.14-5.94-15.81-9.26-.3,1.94-.6,3.93-.9,5.92"/>
  <path class="cls-1" d="m54.31,74.36c3.34,2.23,6.68,4.46,10.03,6.68"/>
  <path class="cls-1" d="m284.91,122.82l-10.03-2.51"/>
  <path class="cls-1" d="m76.87,185.48l5.01,5.01"/>
  <path class="cls-1" d="m78.54,197.18l5.01,5.01"/>
  <path class="cls-1" d="m507.15,74.36c-1.67-.28-3.33-.72-5.01-.8-2.78-.13-5.57-.04-8.35-.04"/>
  <path class="cls-1" d="m782.87,157.07c3.62.84,7.24,1.67,10.86,2.51"/>
  <path class="cls-1" d="m843.02,274.88c-1.39-.28-2.78-.56-4.18-.84"/>
  <path class="cls-1" d="m622.45,138.69c-2.51-.56-5.01-1.11-7.52-1.67"/>
  <path class="cls-1" d="m483.76,161.25c-1.39.28-2.78.56-4.18.84"/>
  <path class="cls-1" d="m830.49,238.95c-1.39-.28-2.78-.56-4.18-.84"/>
  <path class="cls-1" d="m121.98,137.02l6.68,6.68"/>
  <path class="cls-1" d="m164.59,20.05c-.84,0-1.68-.05-2.5.07-.08.01-.01,1.04-.01,1.6"/>
  <path class="cls-1" d="m788.72,327.52c-1.11-.56-2.23-1.11-3.34-1.67"/>
  <path class="cls-1" d="m387.67,347.57c2.79-1.11,5.57-2.23,8.36-3.34"/>
  <path class="cls-1" d="m417.75,44.28c-.28,2.23-.56,4.46-.84,6.68"/>
  <path class="cls-1" d="m818.79,487.93c-1.11,1.11-2.23,2.23-3.34,3.34"/>
  <path class="cls-1" d="m335.87,312.48c-.84.28-1.67.56-2.51.84"/>
  <path class="cls-1" d="m53.47,168.77c-.84.56-1.67,1.11-2.51,1.67"/>
  <path class="cls-1" d="m142.04,430.29c-.56.84-1.11,1.67-1.67,2.51"/>
  <path class="cls-1" d="m434.46,105.27h-2.51"/>
  <path class="cls-1" d="m88.56,101.93c-.84.56-1.67,1.11-2.51,1.67"/>
  <path class="cls-1" d="m664.23,218.07c-.84-.28-1.67-.56-2.51-.84"/>
  <path class="cls-1" d="m870.6,490.44c.23-1.17.45-2.34.56-2.92,3.72-1.4,4.12,6.48,9.04-.52-2.79.48-4.11.71-5.43.93"/>
</svg>